<svg width="77" height="77" viewBox="0 0 77 77" fill="none" xmlns="http://www.w3.org/2000/svg">
<g clip-path="url(#clip0_1210_3428)">
<path fill-rule="evenodd" clip-rule="evenodd" d="M12.2558 59.4183L15.0471 59.1296C14.9055 59.2872 14.7556 59.4372 14.5979 59.5788C14.0416 60.2261 13.5475 60.9243 13.1221 61.6642C12.6968 62.4083 12.3216 63.18 11.9992 63.9742L10.9404 67.1825C9.91376 67.5675 10.0742 68.7867 11.2292 69.0433C16.7186 68.7866 22.1848 68.165 27.5917 67.1825C30.2225 66.6692 32.8213 66.1238 35.3879 65.4821C39.2379 64.5517 43.0558 63.4608 46.9058 62.4342C46.9058 62.4342 54.0283 60.3808 59.9638 57.9746C63.1721 56.7233 66.22 55.2475 69.3321 53.6754C70.7117 52.9375 69.6208 50.8521 67.9525 51.6542C65.5783 52.745 64.4554 53.1621 62.0813 54.0604L62.37 53.6433C62.7889 52.94 63.1639 52.2114 63.4929 51.4617C63.9421 50.4029 64.1988 49.28 64.7121 48.2533C64.9177 47.868 65.1425 47.4932 65.3858 47.1304C65.5437 46.954 65.6309 46.7255 65.6309 46.4888C65.6309 46.252 65.5437 46.0236 65.3858 45.8471C66.2559 45.4709 67.1023 45.0424 67.9204 44.5638C69.2679 44.2108 69.2679 41.0667 67.5675 42.2217C65.5165 43.2741 63.3674 44.123 61.1508 44.7563C57.2688 46.0717 53.2904 47.0663 49.3121 47.9646C44.1467 49.4725 38.885 50.8842 33.6554 52.2317C30.1904 53.1621 26.7254 54.0925 23.2283 54.8304L19.25 55.7929C19.0518 55.7291 18.8386 55.7291 18.6404 55.7929L12.0633 57.0121L9.62501 57.5254C7.92459 57.75 8.11709 59.6429 9.62501 59.7071L12.2558 59.4183ZM47.2267 57.4613C47.5988 56.8131 47.9206 56.1374 48.1892 55.44C48.6063 54.2208 48.8629 52.9696 49.28 51.7504L50.4671 51.3975C54.4133 50.0821 58.4238 48.8308 62.2738 47.2908C61.8425 47.7505 61.4355 48.2324 61.0546 48.7346L59.9317 50.2746C59.6108 50.7879 59.3542 51.3333 59.0654 51.8146C58.4238 53.1621 57.5575 54.4454 56.8838 55.8571C53.2583 57.0121 49.6329 58.0708 45.9113 59.0654L47.2267 57.4613ZM32.34 62.1454C32.8854 61.3754 33.3988 60.6375 33.88 59.8354C34.6821 58.4879 35.3238 57.0763 35.9975 55.6646C39.2058 54.8304 42.4142 53.9 45.6225 52.9375C45.3294 53.3598 45.0616 53.799 44.8204 54.2529L44.0825 55.6967C43.6333 56.8838 42.9275 57.9746 42.4142 59.1296C42.4142 59.4183 42.1896 59.7071 42.0613 59.9638L34.5858 61.9208L32.0833 62.5625L32.34 62.1454ZM17.5175 61.6642C18.095 60.7017 18.5442 59.7071 19.0575 58.7125L23.9983 58.1671C26.6613 57.7179 29.2921 57.1725 31.9229 56.595C31.57 56.98 31.185 57.3329 30.8321 57.75C30.2526 58.5368 29.7274 59.3622 29.26 60.2204C28.8228 61.1065 28.4372 62.017 28.105 62.9475L27.7842 63.6533L23.0679 64.9046C20.0842 65.6104 17.0363 66.1879 13.9883 66.7333L14.7583 65.5783C15.2075 64.9046 15.7529 64.3271 16.2021 63.6854C16.6885 63.0441 17.1281 62.3686 17.5175 61.6642Z" fill="black"/>
<path fill-rule="evenodd" clip-rule="evenodd" d="M72.8933 47.74C72.7776 42.9687 72.3489 38.2102 71.61 33.495C71.3113 31.7914 70.6713 30.1658 69.7286 28.7158C68.7858 27.2658 67.5596 26.0213 66.1237 25.0571C66.0016 24.9791 65.8652 24.926 65.7225 24.9008C65.5798 24.8755 65.4335 24.8786 65.292 24.9099C65.1505 24.9412 65.0165 25 64.8977 25.0831C64.779 25.1661 64.6777 25.2718 64.5998 25.394C64.5218 25.5161 64.4687 25.6525 64.4435 25.7952C64.4182 25.9379 64.4213 26.0842 64.4526 26.2257C64.4839 26.3672 64.5427 26.5012 64.6258 26.62C64.7088 26.7387 64.8145 26.84 64.9367 26.9179C66.0965 27.7569 67.0772 28.8191 67.8209 30.0422C68.5647 31.2653 69.0567 32.6246 69.2679 34.0404C69.8133 36.6713 70.3587 54.0604 70.3267 54.3492C70.2163 55.5582 69.8205 56.7238 69.1717 57.75C67.1993 59.4315 64.9076 60.6973 62.4342 61.4717C57.6537 63.3967 52.1033 65.1292 50.3387 65.6425C49.0875 66.0275 47.7721 66.3483 46.4567 66.6371C43.2483 67.3429 40.04 67.8883 36.8317 68.6583C34.265 69.3 31.6983 69.9738 29.1317 70.5513C27.4312 70.9363 25.7308 71.2892 24.0304 71.5458L13.6996 73.15C12.9887 73.2662 12.2702 73.3306 11.55 73.3425C11.1024 73.3849 10.6529 73.2838 10.2667 73.0538C9.97791 71.5138 6.64125 51.6542 6.60916 51.5579C6.77476 51.6194 6.9569 51.6194 7.1225 51.5579C9.75333 51.205 18.2233 50.2104 24.9929 49.2479C28.2012 48.7988 31.0567 48.3496 32.6929 48.0288C37.6538 46.9129 42.54 45.4877 47.3229 43.7617C54.4336 41.0944 61.3485 37.9318 68.0167 34.2971C68.1458 34.2325 68.2608 34.1429 68.3551 34.0335C68.4493 33.924 68.5209 33.797 68.5657 33.6597C68.6104 33.5224 68.6275 33.3776 68.6159 33.2337C68.6042 33.0898 68.5641 32.9496 68.4979 32.8213C68.3667 32.5608 68.1394 32.3616 67.8639 32.2658C67.5885 32.17 67.2866 32.1851 67.0221 32.3079C61.1829 35.0029 55.4721 37.3129 49.7292 39.3021C46.7775 40.2967 43.8258 41.2271 40.8421 42.0933C37.8583 42.9596 34.9387 43.7617 31.8908 44.4354L6.93 49.7933C6.93 49.7933 6.7375 49.7933 6.60916 49.9858C6.60791 49.4241 6.67252 48.8642 6.80166 48.3175C6.94893 47.7482 7.18728 47.2065 7.50749 46.7133C8.02503 45.829 8.60395 44.9821 9.24 44.1788L11.8708 40.9704L20.6937 30.0621C21.5279 28.875 22.4583 27.7521 23.2925 26.6292C23.8658 25.9332 24.4992 25.2891 25.1854 24.7042C25.3847 24.5463 25.5134 24.316 25.5435 24.0635C25.5735 23.811 25.5025 23.5569 25.3458 23.3567C25.1605 23.1783 24.9133 23.0786 24.656 23.0786C24.3988 23.0786 24.1516 23.1783 23.9662 23.3567C23.3538 23.829 22.7847 24.3552 22.2658 24.9288C21.1108 26.18 20.0842 27.6238 19.0575 28.875L9.91374 39.4625L7.18666 42.6708C6.44382 43.5456 5.75797 44.4673 5.13333 45.43C4.68248 46.1626 4.3267 46.9496 4.07458 47.7721C3.80788 48.8195 3.69973 49.901 3.75375 50.9804C3.75375 53.1942 4.45958 55.6004 4.68416 57.6217L6.41666 70.1342C6.47179 71.3631 6.62196 72.5859 6.86583 73.7917C7.09542 74.6323 7.57686 75.3824 8.24541 75.9413C9.04715 76.5145 9.98997 76.8583 10.9725 76.9358C12.0392 77.045 13.1142 77.045 14.1808 76.9358L24.64 75.3638C26.4367 75.1071 28.2012 74.7221 29.9658 74.3371C32.5646 73.7275 35.1633 73.0538 37.7621 72.4121C40.9704 71.61 44.1787 71.0646 47.1946 70.3267C48.5742 69.9738 49.9537 69.6208 51.3333 69.1717C56.1813 67.613 60.9372 65.7813 65.5783 63.6854C67.8378 62.7879 69.8743 61.4084 71.5458 59.6429C72.5416 58.1192 73.1172 56.3594 73.2142 54.5417C73.3188 52.2694 73.2114 49.9923 72.8933 47.74Z" fill="black"/>
<path fill-rule="evenodd" clip-rule="evenodd" d="M29.9017 26.7896C31.2285 27.6811 32.5991 28.5056 34.0084 29.26L36.7354 32.4683C37.3517 33.0611 38.0687 33.5392 38.8529 33.88C39.6015 34.2346 40.4038 34.4623 41.2271 34.5538C42.4752 34.6962 43.7392 34.5423 44.9167 34.1046C47.0663 33.4629 48.895 31.9871 51.1408 31.185C51.5899 30.999 52.0672 30.8906 52.5525 30.8642C54.0976 30.8276 55.6398 30.7098 57.1725 30.5113C58.2409 30.2942 59.2485 29.8452 60.1242 29.1958C60.9571 28.5933 61.6836 27.8559 62.2738 27.0142C63.0451 25.7538 63.4533 24.3049 63.4533 22.8273C63.4533 21.3497 63.0451 19.9008 62.2738 18.6404C61.7905 17.8504 61.0749 17.2291 60.2249 16.8615C59.3749 16.4939 58.432 16.3981 57.5254 16.5871C57.5254 15.5283 57.5254 14.5017 57.2688 13.3788C56.9868 11.0321 56.4268 8.72729 55.6004 6.51292C55.1146 5.27043 54.4904 4.08658 53.7396 2.98376C53.1549 2.12672 52.415 1.38674 51.5579 0.802091C50.9166 0.376588 50.1814 0.113377 49.4156 0.03513C48.6499 -0.0431168 47.8767 0.065946 47.1625 0.352924C45.5096 1.09163 44.0897 2.2675 43.0559 3.75376C41.339 6.11143 39.9067 8.6637 38.7888 11.3575C38.2181 12.7908 37.7779 14.2726 37.4733 15.785C36.9163 15.6317 36.3476 15.5244 35.7729 15.4642C34.7584 15.3688 33.7351 15.4667 32.7571 15.7529C31.0564 16.3675 29.6632 17.6225 28.875 19.25C28.4493 20.0882 28.201 21.0052 28.1458 21.9436C28.0906 22.8821 28.2296 23.8219 28.5542 24.7042C28.8504 25.487 29.3098 26.1978 29.9017 26.7896ZM45.5583 5.71084C46.184 4.91346 46.9712 4.25744 47.8684 3.78584C48.1205 3.6189 48.4162 3.52988 48.7186 3.52988C49.0209 3.52988 49.3166 3.6189 49.5688 3.78584C50.1354 4.23584 50.5956 4.80554 50.9163 5.45417C51.3519 6.23278 51.717 7.04881 52.0071 7.89251C52.7412 9.85117 53.2577 11.8847 53.5471 13.9563C53.8655 16.0819 54.0583 18.2245 54.1246 20.3729C54.1246 20.8542 53.8038 21.1429 53.4188 21.3996C52.7944 21.8773 52.0875 22.2362 51.3334 22.4583C49.7352 22.8256 48.095 22.9767 46.4567 22.9075C44.8283 22.7829 43.2278 22.4152 41.7084 21.8167C41.1796 21.6357 40.6975 21.3398 40.2967 20.9504C39.8749 20.5432 39.5275 20.0655 39.27 19.5388C39.4368 17.043 40.1138 14.6079 41.2592 12.3842C42.4197 9.99552 43.8631 7.75501 45.5583 5.71084ZM31.1208 20.2767C31.3342 19.744 31.6551 19.261 32.0637 18.858C32.4722 18.455 32.9595 18.1407 33.495 17.9346C34.1944 17.6807 34.9326 17.5505 35.6767 17.5496C36.1838 17.5906 36.6876 17.6656 37.1846 17.7742C36.9934 18.6026 37.0137 19.4658 37.2436 20.2844C37.4735 21.1029 37.9055 21.8505 38.5 22.4583C39.0992 23.1104 39.8325 23.6248 40.6496 23.9663C42.3939 24.686 44.2293 25.161 46.1038 25.3779C47.966 25.5191 49.8382 25.4545 51.6863 25.1854C53.1652 25.0137 54.5773 24.4731 55.7929 23.6133C56.3234 23.2249 56.7561 22.7182 57.0568 22.1335C57.3575 21.5488 57.518 20.9021 57.5254 20.2446V18.6725C58.1847 18.5505 58.8655 18.6947 59.4187 19.0735C59.9719 19.4523 60.3525 20.0349 60.4771 20.6938C60.7375 21.4286 60.8238 22.2139 60.7291 22.9877C60.6345 23.7616 60.3615 24.5029 59.9317 25.1533C59.4866 25.6961 58.9556 26.1621 58.3596 26.5329C57.8272 26.8827 57.2251 27.1126 56.595 27.2067C55.1833 27.3992 53.7075 27.2067 52.2638 27.2067C51.4702 27.2379 50.6835 27.3672 49.9217 27.5917C47.9967 28.2333 46.3604 29.3883 44.5958 30.0942C43.6996 30.4905 42.7151 30.6454 41.7404 30.5433C41.2753 30.4793 40.8217 30.3496 40.3929 30.1583C39.9791 29.9928 39.5986 29.7537 39.27 29.4525C38.5642 28.8108 37.9867 27.9446 37.2808 27.2708C36.8773 26.8542 36.4249 26.4879 35.9333 26.18C34.7463 25.4421 33.4629 25.1213 32.3721 24.4475C31.8565 24.1781 31.4405 23.7509 31.185 23.2283C30.9806 22.7648 30.8698 22.2654 30.8588 21.7589C30.8477 21.2524 30.9368 20.7487 31.1208 20.2767Z" fill="black"/>
<path fill-rule="evenodd" clip-rule="evenodd" d="M46.9379 12.8334L49.6971 11.8709C49.9736 11.773 50.2 11.5693 50.3263 11.3046C50.4527 11.0398 50.4687 10.7357 50.3708 10.4592C50.273 10.1826 50.0693 9.9563 49.8046 9.82995C49.5398 9.70359 49.2357 9.68758 48.9592 9.78544L46.4567 10.9404C46.2082 11.0084 45.9958 11.1701 45.8641 11.3915C45.7325 11.6129 45.6919 11.8768 45.7508 12.1275C45.7807 12.2528 45.8355 12.3708 45.9118 12.4745C45.9881 12.5782 46.0845 12.6656 46.1952 12.7314C46.3058 12.7972 46.4286 12.8402 46.5562 12.8577C46.6838 12.8752 46.8136 12.8669 46.9379 12.8334Z" fill="black"/>
<path fill-rule="evenodd" clip-rule="evenodd" d="M42.9916 19.635C43.3948 19.6068 43.7932 19.5315 44.1787 19.4104C44.8846 19.2179 45.5583 18.8971 46.2321 18.7046C46.3716 18.6674 46.5023 18.603 46.6167 18.5149C46.7311 18.4269 46.8269 18.317 46.8985 18.1917C46.9702 18.0663 47.0162 17.928 47.034 17.7848C47.0517 17.6415 47.0409 17.4961 47.0021 17.3571C46.9133 17.0788 46.7195 16.8461 46.4619 16.7083C46.2044 16.5706 45.9032 16.5386 45.6225 16.6192L42.8633 17.6779C42.7368 17.6861 42.6132 17.7191 42.4995 17.7752C42.3858 17.8313 42.2843 17.9092 42.2009 18.0046C42.1174 18.1 42.0536 18.211 42.0131 18.3311C41.9726 18.4512 41.9563 18.5781 41.965 18.7046C41.9815 18.9627 42.098 19.2043 42.2897 19.378C42.4813 19.5517 42.7331 19.6439 42.9916 19.635Z" fill="black"/>
</g>
<defs>
<clipPath id="clip0_1210_3428">
<rect width="77" height="77" fill="white"/>
</clipPath>
</defs>
</svg>
