<svg width="77" height="77" viewBox="0 0 77 77" fill="none" xmlns="http://www.w3.org/2000/svg">
<g clip-path="url(#clip0_1210_3447)">
<path d="M3.2083 5.26165C3.73955 6.37993 3.90782 7.63633 3.68955 8.85499C3.32425 10.4797 2.78648 12.0607 2.08538 13.5712C1.3031 15.4198 0.88898 17.4032 0.866215 19.4104C0.903227 21.2738 1.60926 23.0616 2.85538 24.4475C2.92862 24.5868 3.03111 24.7085 3.15583 24.8045C3.28056 24.9004 3.42456 24.9682 3.57795 25.0032C3.73135 25.0383 3.89051 25.0397 4.04451 25.0074C4.19852 24.9752 4.34372 24.91 4.47016 24.8163C4.59659 24.7227 4.70127 24.6028 4.77701 24.4649C4.85275 24.3269 4.89775 24.1743 4.90894 24.0173C4.92012 23.8604 4.89722 23.7029 4.8418 23.5556C4.78638 23.4083 4.69976 23.2748 4.58788 23.1642C3.88003 22.0839 3.57349 20.7896 3.72163 19.5067C4.03986 17.9065 4.61403 16.3682 5.42205 14.9508C6.30812 13.1922 6.9246 11.3103 7.2508 9.36832C7.3336 7.8047 6.97802 6.24903 6.22413 4.87665C5.24593 3.03038 3.85082 1.43754 2.14955 0.224572C2.06265 0.133328 1.95812 0.0606855 1.84231 0.0110503C1.72649 -0.0385848 1.6018 -0.0641785 1.4758 -0.0641785C1.34979 -0.0641785 1.2251 -0.0385848 1.10929 0.0110503C0.993474 0.0606855 0.888947 0.133328 0.802048 0.224572C0.710804 0.31147 0.638162 0.415997 0.588527 0.531812C0.538892 0.647628 0.513298 0.772318 0.513298 0.898322C0.513298 1.02432 0.538892 1.14902 0.588527 1.26483C0.638162 1.38065 0.710804 1.48517 0.802048 1.57207C1.83658 2.63364 2.65394 3.88693 3.2083 5.26165Z" fill="black"/>
<path d="M18.2875 9.11165C18.48 9.72123 18.5762 10.3308 18.7046 10.9404C18.8646 11.7561 18.8646 12.5951 18.7046 13.4108C18.604 14.2355 18.3992 15.044 18.095 15.8171C17.6137 17.1646 17.0362 18.5441 16.5871 19.9237C16.4798 20.1878 16.4801 20.4834 16.5881 20.7473C16.696 21.0111 16.9029 21.2222 17.1646 21.3354C17.2964 21.3982 17.4399 21.433 17.5858 21.4376C17.7318 21.4423 17.8771 21.4167 18.0127 21.3624C18.1483 21.3082 18.2712 21.2265 18.3737 21.1224C18.4762 21.0184 18.5561 20.8943 18.6083 20.7579C19.4104 19.3141 20.4691 17.9025 21.2712 16.4587C21.6598 15.7187 21.9819 14.9457 22.2337 14.1487C22.6104 12.4154 22.4767 10.6101 21.8487 8.95123C20.8261 6.88946 19.5547 4.96078 18.0629 3.20832C17.9997 3.09877 17.9155 3.00275 17.8152 2.92573C17.7149 2.84871 17.6004 2.7922 17.4783 2.75943C17.3561 2.72666 17.2287 2.71826 17.1033 2.73473C16.9779 2.7512 16.857 2.7922 16.7475 2.8554C16.6379 2.9186 16.5419 3.00275 16.4649 3.10306C16.3879 3.20337 16.3314 3.31787 16.2986 3.44002C16.2658 3.56216 16.2574 3.68957 16.2739 3.81496C16.2904 3.94035 16.3314 4.06127 16.3946 4.17082C17.0362 5.80707 17.7741 7.44332 18.2875 9.11165Z" fill="black"/>
<path d="M72.4762 61.8246C71.6925 61.6787 70.8988 61.5929 70.1021 61.5679C65.2896 61.2791 54.0604 61.3112 49.28 61.5679C46.7775 61.7604 44.3392 61.8566 41.9008 61.9529C38.2112 61.9529 34.5217 62.1133 30.7679 62.1775L9.2079 62.7229C8.11707 62.7229 5.61457 62.7229 3.75373 63.0437C2.82026 63.0937 1.90024 63.2885 1.02665 63.6212C0.862952 63.7381 0.738527 63.9018 0.669793 64.0908C0.601059 64.2799 0.591247 64.4853 0.641651 64.68C0.442449 64.8198 0.294065 65.0206 0.218841 65.252C0.143618 65.4835 0.145627 65.7331 0.224567 65.9633C0.768502 67.1704 1.54219 68.2601 2.50248 69.1716C3.79519 70.4424 5.20209 71.5916 6.7054 72.6046C8.24282 73.55 9.92171 74.2433 11.6783 74.6579C14.1759 75.2599 16.7032 75.7311 19.25 76.0696C24.1284 76.7492 29.0511 77.0602 33.9762 77C38.8759 76.9573 43.77 76.6574 48.6383 76.1016C52.7834 75.7531 56.8998 75.1207 60.9583 74.2087C63.7075 73.4876 66.3502 72.4089 68.8187 71.0004C70.5842 69.6468 72.1128 68.0097 73.3425 66.1558C73.7323 65.5762 74.0249 64.9368 74.2087 64.2629C74.2899 63.8013 74.2106 63.3258 73.9841 62.9154C73.8238 62.6377 73.6065 62.3969 73.3467 62.209C73.0868 62.021 72.7902 61.89 72.4762 61.8246ZM66.8296 67.6958C64.6372 68.997 62.2865 70.0106 59.8354 70.7116C55.9858 71.6603 52.0719 72.3251 48.125 72.7008C43.3928 73.3817 38.6264 73.7994 33.8479 73.9521C29.0819 74.1176 24.3103 73.9353 19.5708 73.4066C17.1259 73.1544 14.6952 72.7796 12.2879 72.2837C10.7782 71.9342 9.32912 71.361 7.98873 70.5833C6.6006 69.6933 5.30067 68.6727 4.10665 67.5354C3.35484 66.877 2.73435 66.0823 2.2779 65.1933C3.33973 65.0338 4.41253 64.9587 5.48623 64.9687H9.27207L30.8321 65.1291H42.0292C44.4889 65.1291 46.9914 65.065 49.5366 64.9366C54.0604 64.7121 64.3271 64.9366 69.3321 65.1291C68.6484 66.1195 67.8023 66.9873 66.8296 67.6958Z" fill="black"/>
<path d="M75.2354 14.1808C73.7492 12.4636 71.7036 11.3271 69.4604 10.9725C68.6853 10.9359 67.9088 11.0006 67.1504 11.165C67.32 9.59926 66.9706 8.02115 66.1558 6.67335C64.712 4.63499 62.5624 3.20573 60.1241 2.66293C59.4834 2.49972 58.8276 2.40296 58.1671 2.37418C57.4697 2.36884 56.7762 2.4772 56.1137 2.69501C55.1194 2.94168 54.1987 3.42282 53.4284 4.0982C52.6581 4.77358 52.0607 5.62358 51.6862 6.5771C49.7291 12.2238 55.3437 16.2021 55.4721 16.2021C53.573 17.7415 51.8704 19.5086 50.4029 21.4638C50.0677 21.9294 49.8178 22.4508 49.665 23.0038C45.206 21.997 40.5307 22.7437 36.6071 25.0892L36.3183 25.2817C35.4394 25.0844 34.5504 24.9344 33.6554 24.8325C31.8266 24.6079 29.8696 24.4154 29.2921 24.3833C27.9692 24.3581 26.6472 24.4656 25.3458 24.7042C23.4277 25.0597 21.5477 25.5968 19.7312 26.3083C16.2889 27.6339 13.163 29.6669 10.5554 32.2758C7.95864 34.8874 5.91774 37.9978 4.55582 41.4196C4.02505 42.7057 3.57501 44.0237 3.20832 45.3658C2.83193 46.7238 2.55316 48.1069 2.37415 49.5046C2.09261 51.6342 2.09261 53.7916 2.37415 55.9213C2.49386 57.5323 3.18841 59.0466 4.33123 60.1884C4.53569 60.3921 4.81258 60.5065 5.10123 60.5065C5.38989 60.5065 5.66677 60.3921 5.87123 60.1884C6.06751 59.98 6.17681 59.7046 6.17681 59.4184C6.17681 59.1321 6.06751 58.8567 5.87123 58.6483C5.20565 57.8105 4.85384 56.7664 4.87665 55.6967C4.75345 53.8164 4.88293 51.928 5.26165 50.0821C5.51533 48.8431 5.84753 47.6215 6.25623 46.4246C6.66305 45.2237 7.13429 44.0456 7.6679 42.8954C8.98468 39.9054 10.8449 37.1858 13.1541 34.8746C15.3848 32.541 18.0422 30.6569 20.9825 29.3242C22.311 28.6825 23.6834 28.1357 25.0891 27.6879C26.4422 27.2696 27.8446 27.0322 29.26 26.9821H33.4629H33.9441C30.5143 29.8033 28.0567 33.63 26.9179 37.9225C26.3555 40.4908 26.3555 43.1504 26.9179 45.7188C27.3914 48.2476 28.3151 50.6709 29.645 52.8733L31.8266 55.5042C31.9543 55.7254 32.1646 55.8869 32.4113 55.9531C32.658 56.0193 32.9208 55.9847 33.1421 55.8571C33.3633 55.7295 33.5248 55.5192 33.591 55.2725C33.6571 55.0258 33.6226 54.7629 33.495 54.5417L31.4416 51.8467C30.3742 49.8472 29.6682 47.675 29.3562 45.43C29.0206 43.2206 29.1739 40.9645 29.8054 38.8208C31.2515 34.3304 34.3629 30.5646 38.5 28.2975C40.42 27.1498 42.5867 26.4781 44.8193 26.3385C47.0518 26.199 49.2853 26.5957 51.3333 27.4954C51.9532 27.7789 52.5181 28.17 53.0016 28.6504C53.9023 29.4732 54.7389 30.3634 55.5041 31.3133C55.8093 31.669 56.0582 32.0694 56.2421 32.5004C56.5578 33.3728 56.8255 34.2617 57.0442 35.1633C57.7043 37.6114 57.8138 40.1754 57.365 42.6708C57.0671 45.1545 56.0902 47.508 54.5416 49.4725C53.8037 50.3067 53.0337 51.1088 52.1996 51.9108C47.6758 56.2742 48.4779 53.8038 47.4512 54.9588C47.2475 55.1632 47.1331 55.4401 47.1331 55.7288C47.1331 56.0174 47.2475 56.2943 47.4512 56.4988C47.6561 56.6973 47.9067 56.8421 48.181 56.9205C48.4552 56.9988 48.7445 57.0083 49.0233 56.9479C49.7667 56.7822 50.4597 56.4412 51.0446 55.9534C51.9429 55.2154 52.8733 54.4775 53.7396 53.6754C54.6058 52.8733 55.5041 52.0713 56.3062 51.2371C58.358 48.9893 59.7365 46.2099 60.2846 43.2163C60.8203 40.7272 60.8964 38.1611 60.5092 35.6446C61.0905 36.107 61.6276 36.6226 62.1133 37.1846C62.8865 38.0828 63.5439 39.0745 64.0704 40.1363C64.709 41.4291 65.2142 42.7836 65.5783 44.1788C65.9615 45.5754 66.2192 47.0034 66.3483 48.4458C66.6131 51.4155 66.2636 54.4079 65.3217 57.2367C65.2592 57.3662 65.2248 57.5074 65.2204 57.6511C65.216 57.7949 65.2419 57.9379 65.2964 58.071C65.3508 58.2041 65.4326 58.3242 65.5364 58.4237C65.6403 58.5231 65.7638 58.5997 65.8992 58.6483C66.0334 58.7115 66.179 58.7467 66.3273 58.7517C66.4755 58.7567 66.6232 58.7313 66.7614 58.6773C66.8995 58.6232 67.0252 58.5416 67.1307 58.4373C67.2362 58.333 67.3193 58.2083 67.375 58.0709C68.9326 55.0955 69.7886 51.8031 69.8775 48.4458C69.884 46.7101 69.6464 44.9821 69.1716 43.3125C68.6539 41.6506 67.8974 40.0727 66.9258 38.6283C66.096 37.4267 65.1026 36.3469 63.9742 35.42C62.8597 34.4455 61.5616 33.7037 60.1562 33.2383C60.0192 32.6197 59.8478 32.0092 59.6429 31.4096C59.3508 30.6143 58.9398 29.8678 58.4237 29.1958L58.0066 28.875L59.6108 27.6238C60.7337 26.5008 61.7604 25.1854 62.8191 24.0625C63.3338 23.5419 63.904 23.0792 64.5196 22.6829C66.5764 24.2178 69.0462 25.1006 71.61 25.2175C72.7614 25.077 73.8404 24.5813 74.6971 23.7993C75.5538 23.0174 76.1456 21.988 76.3904 20.8542C76.8394 19.7448 76.9691 18.532 76.765 17.3527C76.5609 16.1735 76.0311 15.0748 75.2354 14.1808ZM73.2783 19.8275C72.7008 21.7846 71.6741 22.3621 70.455 22.2017C68.7947 21.8318 67.2174 21.1573 65.8029 20.2125C65.5356 20.0375 65.2318 19.9262 64.9147 19.8873C64.5976 19.8484 64.2758 19.8828 63.9742 19.9879C63.1623 20.4407 62.4082 20.9901 61.7283 21.6242C60.3487 22.9717 59.2579 24.6079 57.9425 25.9875L56.5629 27.1746C56.21 26.7575 55.825 26.3725 55.44 25.9875C54.6807 25.2616 53.8152 24.6558 52.8733 24.1908C52.4352 23.9919 51.9852 23.8205 51.5258 23.6775C51.7403 23.1068 52.0802 22.5915 52.5204 22.1696C53.6016 21.0115 54.7708 19.9389 56.0175 18.9613C56.2741 18.7367 57.0762 18.2233 57.4933 17.8063C57.7445 17.5226 57.9209 17.1807 58.0066 16.8117C58.0841 16.2429 57.9342 15.6665 57.5896 15.2075C57.0762 14.4054 55.8892 13.4429 55.6325 12.9296C54.8413 11.5697 54.4623 10.0092 54.5416 8.43793C54.7021 7.25085 55.5362 6.3846 57.2367 5.90335C57.5567 5.8714 57.8791 5.8714 58.1991 5.90335C58.5504 5.9284 58.8962 6.00404 59.2258 6.12793C60.8097 6.49369 62.2032 7.43031 63.14 8.75876C63.4882 9.40448 63.6705 10.1266 63.6705 10.8602C63.6705 11.5938 63.4882 12.316 63.14 12.9617C62.9796 13.3146 63.3325 15.9775 65.6425 15.4642C66.8086 15.095 68.0152 14.8688 69.2358 14.7904C70.5947 14.9133 71.8616 15.5296 72.7971 16.5229C73.1729 16.9765 73.4166 17.5248 73.5015 18.1077C73.5864 18.6906 73.5092 19.2856 73.2783 19.8275Z" fill="black"/>
</g>
<defs>
<clipPath id="clip0_1210_3447">
<rect width="77" height="77" fill="white"/>
</clipPath>
</defs>
</svg>
