<svg width="118" height="118" viewBox="0 0 118 118" fill="none" xmlns="http://www.w3.org/2000/svg">
<path d="M44.5531 23.7295L15.9256 48.7799C13.4707 50.9283 15.1167 54.7436 18.4984 54.7436C20.5644 54.7436 22.2393 56.2904 22.2393 58.1991V74.1463C22.2393 87.8657 22.2393 94.7255 26.8537 98.9877C31.4681 103.25 38.8949 103.25 53.7485 103.25H64.2515C79.1052 103.25 86.5319 103.25 91.1462 98.9877C95.7609 94.7255 95.7609 87.8657 95.7609 74.1463V58.1991C95.7609 56.2904 97.4356 54.7436 99.5015 54.7436C102.883 54.7436 104.529 50.9283 102.074 48.7799L73.4466 23.7295C66.6056 17.7432 63.1851 14.75 59 14.75C54.8149 14.75 51.3944 17.7432 44.5531 23.7295Z" stroke="black" stroke-width="7.375" stroke-linecap="round" stroke-linejoin="round"/>
<path d="M59 78.6667H59.0442" stroke="black" stroke-width="9.83333" stroke-linecap="round" stroke-linejoin="round"/>
</svg>
